<svg width="473" height="677" viewBox="0 0 473 677" fill="none" xmlns="http://www.w3.org/2000/svg">
<path d="M20.7407 6.99526C62.2304 5.10936 103.57 4.66231 145.1 4.66231C167.554 4.66231 190.046 5.05105 212.496 4.59751C231.005 4.22359 249.383 1.57067 267.904 1.22769C299.688 0.63909 331.344 1.12237 363.036 3.49583C386.171 5.22841 408.799 6.69015 431.988 6.99526C438.116 7.07589 444.399 7.82705 450.457 8.74498C452.938 9.12089 459.593 8.46469 461.344 10.0411C463.089 11.6114 461.638 21.2847 461.733 23.3907C462.139 32.3262 460.682 40.757 463 49.3477C463.323 53.4413 463.965 59.9261 465.125 63.9271C465.676 65.8252 465.851 67.788 466.003 69.7263C466.076 70.6504 466.388 71.5252 466.61 72.4321C466.726 72.9045 466.852 77.3923 467.047 77.8477C467.047 83.7552 466.514 91.4802 467.047 97.3477C468.399 112.213 468.782 123.332 467.76 137.9C466.286 158.908 467.501 180.359 467.501 201.408C467.501 212.435 467.936 223.573 467.371 234.588C466.497 251.635 463.23 268.359 462.9 285.524C461.611 352.546 468.983 419.41 468.667 486.417C468.539 513.721 468.864 541.799 466.918 569.042C465.204 593.036 464.319 619.203 466.982 643.178C467.377 646.733 474.46 666.885 468.927 668.387C459.874 670.844 450.007 674.144 440.672 675.127C428.221 676.437 415.196 675.386 402.697 675.386C373.91 675.386 345.228 673.053 316.377 673.053C272.769 673.053 229.22 674.791 185.603 674.155C143.936 673.546 102.471 670.541 60.7897 670.72C45.2121 670.787 29.7685 673.053 14.2602 673.053C3.33905 673.053 7.12915 656.305 6.0949 648.622C3.3185 627.997 2.07704 607.814 2.07704 586.993C2.07704 574.97 1.62526 562.84 2.33625 550.832C3.08916 538.116 5.63632 525.568 6.48372 512.857C8.41962 483.818 9.07589 454.601 9.07589 425.501V351.3C9.07589 329.183 5.27803 307.354 4.47479 285.265C3.04635 245.982 3.39718 207.126 5.83568 167.839C8.48959 125.082 8.1674 82.731 5.57646 39.9806C5.0025 30.5103 3.05192 21.7592 3.24351 12.1796C3.41436 3.63718 13.8126 5.84059 20.7407 6.99526Z" fill="#B9AA81" stroke="#202020" stroke-width="2" stroke-linecap="round"/>
</svg>
